<svg width="358" height="100" viewBox="0 0 358 100" fill="none" xmlns="http://www.w3.org/2000/svg">
<path fill-rule="evenodd" clip-rule="evenodd" d="M0.295654 33.0032L33.2792 0L100.297 0.111702V67.0585L67.2016 99.95H0.295654V33.0032ZM100.191 0.218059L33.3229 0.106357L0.402058 33.0468V99.8436H67.1581L100.191 67.0138V0.218059Z" fill="white"/>
<path fill-rule="evenodd" clip-rule="evenodd" d="M66.9668 66.9745L100.084 66.9702V0.324463L67.1146 33.0915L66.9668 66.9745V66.9745Z" fill="url(#paint0_linear_794_758)"/>
<rect x="0.508301" y="33.0916" width="66.6061" height="66.6457" fill="#FF5F21"/>
<path fill-rule="evenodd" clip-rule="evenodd" d="M0.276611 33.1456L33.3676 0.212646L100.084 0.324349L67.1145 33.0914L0.276611 33.1456V33.1456Z" fill="url(#paint1_linear_794_758)"/>
<path fill-rule="evenodd" clip-rule="evenodd" d="M100.011 66.915L67.1516 99.7938V66.915H100.011V66.915Z" fill="url(#paint2_linear_794_758)"/>
<path fill-rule="evenodd" clip-rule="evenodd" d="M146.479 78.2702C144.09 79.8234 141.321 80.6 138.172 80.6C135.844 80.6 133.378 80.2117 130.776 79.4351C127.444 78.294 125.779 76.7862 125.779 74.9117C125.779 74.1819 126.062 73.5312 126.629 72.9596C127.196 72.388 127.847 72.1021 128.581 72.1021C128.9 72.1021 130.247 72.5592 132.621 73.4734C134.996 74.3876 136.936 74.8443 138.442 74.8436C139.949 74.8436 141.296 74.5468 142.482 73.9532C143.989 73.2227 144.742 72.1489 144.742 70.7319C144.742 68.9511 143.623 67.7177 141.386 67.0319L137.826 66.3468L134.264 65.6617C131.251 64.8851 129.128 63.6972 127.895 62.0979C126.62 60.4085 125.982 58.6043 125.982 56.6851C125.982 53.8532 127.215 51.5692 129.68 49.833C131.872 48.1883 134.451 47.366 137.418 47.366C139.655 47.366 141.984 47.7085 144.404 48.3936C147.691 49.3071 149.335 50.5404 149.335 52.0936C149.33 52.7496 149.14 53.3909 148.787 53.9436C148.376 54.538 147.851 54.8351 147.212 54.8351C146.207 54.8351 144.678 54.4926 142.623 53.8075C140.613 53.1216 139.038 52.7787 137.898 52.7787C136.299 52.7787 134.883 53.0302 133.652 53.533C132.099 54.2635 131.323 55.3599 131.324 56.8223C131.324 58.5131 132.652 59.655 135.309 60.2479C136.638 60.6138 137.99 60.9564 139.364 61.2755L143.488 62.233C146.74 63.3755 148.962 65.4085 150.154 68.3319C150.503 69.2042 150.69 70.133 150.704 71.0724C150.704 74.0454 149.296 76.4447 146.479 78.2702Z" fill="white"/>
<path fill-rule="evenodd" clip-rule="evenodd" d="M179.124 80.5308C181.269 80.5315 183.917 79.8691 187.068 78.5435C187.205 80.0513 188.164 80.8066 189.944 80.8095C191.77 80.8095 192.684 80.0786 192.684 78.6169L192.752 54.8318C192.751 52.2283 191.222 49.9212 188.164 47.9105C185.707 46.6461 182.983 45.9895 180.22 45.9956C177.799 45.9956 175.265 46.3382 172.618 47.0233C169.011 48.4857 167.208 49.9932 167.208 51.5456C167.208 53.6925 167.756 54.7659 168.852 54.7659C169.263 54.7666 170.701 53.9215 173.165 52.2308C176.27 51.7747 178.69 51.5237 180.425 51.4776C182.251 51.523 183.78 51.8882 185.014 52.5733C186.657 53.9896 187.479 56.5251 187.479 60.1797C186.272 59.8741 185.049 59.634 183.815 59.4605C182.692 59.3035 181.559 59.2232 180.425 59.2201C176.681 59.2208 173.417 60.1347 170.632 61.9616C167.436 64.063 165.839 66.8722 165.839 70.3893C165.838 73.7701 167.276 76.374 170.152 78.201C172.66 79.7542 175.65 80.5308 179.124 80.5308ZM183.678 64.9765C184.889 65.131 186.09 65.3598 187.273 65.6616V72.4456C183.894 74.0896 180.927 74.9116 178.371 74.9116C176.865 74.9123 175.324 74.6041 173.748 73.9871C172.172 73.3701 171.156 72.2392 170.701 70.5945C171.157 68.6761 172.298 67.2258 174.124 66.2435C175.95 65.2612 178.119 64.7701 180.63 64.7701C181.649 64.7773 182.667 64.8462 183.678 64.9765Z" fill="white"/>
<path fill-rule="evenodd" clip-rule="evenodd" d="M214.494 34.0723C215.11 33.6603 215.738 33.4546 216.378 33.4553H216.515C218.523 33.5475 219.527 34.4614 219.528 36.1968V47.9138H227.745C229.163 48.0067 229.872 48.8156 229.872 50.3404C229.735 51.4972 229.484 52.3982 229.118 53.0436C228.708 53.5982 228.183 53.8755 227.543 53.8755H219.599V68.4936C219.599 71.0468 219.85 72.777 220.353 73.684C221.038 74.9138 222.43 75.5287 224.53 75.5287C226.174 75.484 227.247 75.3014 227.749 74.9809L229.735 73.3362C230.047 73.1555 230.401 73.0608 230.762 73.0617C231.049 73.054 231.333 73.125 231.584 73.267C231.948 73.4968 232.279 73.884 232.577 74.4372C232.879 75.0064 233.032 75.6428 233.022 76.2872L232.953 76.8351C232.817 77.5656 232.406 78.1596 231.721 78.617C230.351 79.5312 229.141 80.1365 228.091 80.433C227.041 80.7294 225.808 80.8777 224.393 80.8777C220.192 80.8323 217.362 79.8071 215.901 77.8021C214.395 75.7064 213.641 72.6305 213.641 68.5745V53.8755H209.327C208.823 53.8755 208.481 53.5982 208.3 53.0436C207.979 52.3968 207.819 51.5879 207.82 50.617C207.826 50.0379 207.967 49.4682 208.232 48.9532C208.414 48.261 208.847 47.9145 209.533 47.9138H213.573V35.8511C213.571 35.0766 213.878 34.4837 214.494 34.0723Z" fill="white"/>
<path fill-rule="evenodd" clip-rule="evenodd" d="M258.801 33.1128C260.833 33.1128 261.85 33.7741 261.85 35.0968V68.2766C261.85 72.7922 262.911 75.0497 265.034 75.049H268.286C268.924 75.049 269.484 75.3032 269.964 75.8117C270.445 76.3202 270.662 77.0366 270.615 77.9607C270.523 79.9947 269.587 81.0114 267.807 81.0107H265.41C262.62 81.0107 260.37 80.1426 258.662 78.4064C256.814 76.7617 255.891 73.5642 255.892 68.8139V35.1C255.892 33.7752 256.861 33.1128 258.801 33.1128Z" fill="white"/>
<path fill-rule="evenodd" clip-rule="evenodd" d="M302.39 80.5308C304.536 80.5315 307.184 79.8691 310.335 78.5435C310.471 80.0513 311.43 80.8042 313.211 80.802C315.036 80.802 315.949 80.0712 315.949 78.6095L316.019 54.8318C316.018 52.2283 314.488 49.9212 311.43 47.9105C308.973 46.6461 306.249 45.9895 303.486 45.9956C301.066 45.9956 298.532 46.3382 295.885 47.0233C292.278 48.4857 290.474 49.9932 290.474 51.5456C290.474 53.6925 291.022 54.7659 292.118 54.7659C292.528 54.7666 293.966 53.9215 296.432 52.2308C299.535 51.7747 301.955 51.5237 303.692 51.4776C305.518 51.523 307.048 51.8882 308.279 52.5733C309.923 53.9896 310.745 56.5251 310.745 60.1797C309.538 59.8741 308.315 59.634 307.081 59.4605C305.958 59.3035 304.826 59.2232 303.692 59.2201C299.948 59.2208 296.684 60.1347 293.899 61.9616C290.703 64.063 289.105 66.8722 289.105 70.3893C289.105 73.7701 290.544 76.374 293.419 78.201C295.927 79.7542 298.917 80.5308 302.39 80.5308ZM306.944 64.9765C308.156 65.131 309.356 65.3598 310.54 65.6616V72.4456C307.162 74.0896 304.194 74.9116 301.637 74.9116C300.132 74.9123 298.591 74.6041 297.015 73.9871C295.439 73.3701 294.422 72.2392 293.967 70.5945C294.424 68.6761 295.565 67.2258 297.391 66.2435C299.217 65.2612 301.386 64.7701 303.897 64.7701C304.916 64.7773 305.934 64.8462 306.944 64.9765Z" fill="white"/>
<path fill-rule="evenodd" clip-rule="evenodd" d="M335.609 48.7362V35.5117C335.651 33.7755 334.739 32.9085 332.87 32.9106C332.028 32.9106 331.304 33.1163 330.698 33.5277C329.996 34.0277 329.645 34.666 329.645 35.4426L329.577 78.133C329.577 79.8231 330.422 80.6681 332.111 80.6681C334.165 80.6681 335.284 79.8458 335.466 78.2011C337.566 79.8458 339.484 80.6681 341.219 80.6681C346.424 80.6681 350.51 79.0234 353.477 75.7341C356.308 72.4908 357.723 68.2426 357.723 62.9894C357.723 58.3724 356.341 54.5341 353.577 51.4745C350.628 48.2305 346.929 46.6085 342.482 46.6085C340.487 46.6121 338.196 47.3213 335.609 48.7362ZM342.429 52.5734C344.975 52.5734 347.225 53.6273 349.182 55.7351H349.176C351.177 57.889 352.178 60.2482 352.182 62.8128C352.182 66.2036 351.386 69.0443 349.794 71.3351C347.975 73.8557 345.429 75.116 342.156 75.116C340.156 75.1167 337.951 73.9936 335.541 71.7468V56.0766C336.034 55.5699 336.583 55.1206 337.177 54.7372C337.722 54.3947 338.245 54.0401 338.746 53.6734C340.018 52.9401 341.246 52.5734 342.429 52.5734Z" fill="white"/>
<defs>
<linearGradient id="paint0_linear_794_758" x1="94.9047" y1="57.2765" x2="95.6281" y2="11.6394" gradientUnits="userSpaceOnUse">
<stop stop-color="#07697F"/>
<stop offset="0.17" stop-color="#0B7186"/>
<stop offset="0.65" stop-color="#128296"/>
<stop offset="1" stop-color="#15889B"/>
</linearGradient>
<linearGradient id="paint1_linear_794_758" x1="-44.7482" y1="-10.345" x2="-44.8003" y2="52.4373" gradientUnits="userSpaceOnUse">
<stop stop-color="#07697F"/>
<stop offset="0.22" stop-color="#07657A"/>
<stop offset="0.48" stop-color="#085A6C"/>
<stop offset="0.76" stop-color="#094954"/>
<stop offset="1" stop-color="#0A353A"/>
</linearGradient>
<linearGradient id="paint2_linear_794_758" x1="91.0113" y1="66.0757" x2="58.1713" y2="67.2158" gradientUnits="userSpaceOnUse">
<stop stop-color="#15889B"/>
<stop offset="1" stop-color="#07697F"/>
</linearGradient>
</defs>
</svg>
