<svg width="1440" height="200" viewBox="0 0 1440 200" fill="none" xmlns="http://www.w3.org/2000/svg">
<g clip-path="url(#clip0_784_601)">
<rect width="1440" height="200" fill="white"/>
<rect width="1440" height="200" fill="#0A353A"/>
<path fill-rule="evenodd" clip-rule="evenodd" d="M75.2957 76.0032L108.279 43L175.297 43.1117V110.059L142.202 142.95H75.2957V76.0032ZM175.191 43.2181L108.323 43.1064L75.4021 76.0468V142.844H142.158L175.191 110.014V43.2181Z" fill="white"/>
<path fill-rule="evenodd" clip-rule="evenodd" d="M141.967 109.974L175.084 109.97V43.3245L142.115 76.0915L141.967 109.974V109.974Z" fill="url(#paint0_linear_784_601)"/>
<rect x="75.5083" y="76.0916" width="66.6061" height="66.6457" fill="#FF5F21"/>
<path fill-rule="evenodd" clip-rule="evenodd" d="M75.2766 76.1456L108.368 43.2126L175.084 43.3243L142.114 76.0914L75.2766 76.1456V76.1456Z" fill="url(#paint1_linear_784_601)"/>
<path fill-rule="evenodd" clip-rule="evenodd" d="M175.011 109.915L142.152 142.794V109.915H175.011V109.915Z" fill="url(#paint2_linear_784_601)"/>
<path fill-rule="evenodd" clip-rule="evenodd" d="M221.479 121.27C219.09 122.823 216.321 123.6 213.172 123.6C210.844 123.6 208.378 123.212 205.776 122.435C202.444 121.294 200.779 119.786 200.779 117.912C200.779 117.182 201.062 116.531 201.629 115.96C202.196 115.388 202.847 115.102 203.581 115.102C203.9 115.102 205.247 115.559 207.621 116.473C209.996 117.388 211.936 117.844 213.442 117.844C214.949 117.844 216.296 117.547 217.482 116.953C218.989 116.223 219.742 115.149 219.742 113.732C219.742 111.951 218.623 110.718 216.386 110.032L212.826 109.347L209.264 108.662C206.251 107.885 204.128 106.697 202.895 105.098C201.62 103.409 200.982 101.604 200.982 99.6851C200.982 96.8532 202.215 94.5692 204.68 92.833C206.872 91.1883 209.451 90.366 212.418 90.366C214.655 90.366 216.984 90.7085 219.404 91.3936C222.691 92.3071 224.335 93.5404 224.335 95.0936C224.33 95.7496 224.14 96.3909 223.787 96.9436C223.376 97.538 222.851 97.8351 222.212 97.8351C221.207 97.8351 219.678 97.4926 217.623 96.8075C215.613 96.1216 214.038 95.7787 212.898 95.7787C211.299 95.7787 209.883 96.0302 208.652 96.533C207.099 97.2635 206.323 98.3599 206.324 99.8223C206.324 101.513 207.652 102.655 210.309 103.248C211.638 103.614 212.99 103.956 214.364 104.276L218.488 105.233C221.74 106.376 223.962 108.409 225.154 111.332C225.503 112.204 225.69 113.133 225.704 114.072C225.704 117.045 224.296 119.445 221.479 121.27Z" fill="white"/>
<path fill-rule="evenodd" clip-rule="evenodd" d="M254.124 123.531C256.269 123.531 258.917 122.869 262.068 121.544C262.205 123.051 263.164 123.807 264.944 123.809C266.77 123.809 267.684 123.079 267.684 121.617L267.752 97.8318C267.751 95.2283 266.222 92.9212 263.164 90.9105C260.707 89.6461 257.983 88.9895 255.22 88.9956C252.799 88.9956 250.265 89.3382 247.618 90.0233C244.011 91.4857 242.208 92.9932 242.208 94.5456C242.208 96.6925 242.756 97.7659 243.852 97.7659C244.263 97.7666 245.701 96.9215 248.165 95.2308C251.27 94.7747 253.69 94.5237 255.425 94.4776C257.251 94.523 258.78 94.8882 260.014 95.5733C261.657 96.9896 262.479 99.5251 262.479 103.18C261.272 102.874 260.049 102.634 258.815 102.461C257.692 102.304 256.559 102.223 255.425 102.22C251.681 102.221 248.417 103.135 245.632 104.962C242.436 107.063 240.839 109.872 240.839 113.389C240.838 116.77 242.276 119.374 245.152 121.201C247.66 122.754 250.65 123.531 254.124 123.531ZM258.678 107.976C259.889 108.131 261.09 108.36 262.273 108.662V115.446C258.894 117.09 255.927 117.912 253.371 117.912C251.865 117.912 250.324 117.604 248.748 116.987C247.172 116.37 246.156 115.239 245.701 113.595C246.157 111.676 247.298 110.226 249.124 109.243C250.95 108.261 253.119 107.77 255.63 107.77C256.649 107.777 257.667 107.846 258.678 107.976Z" fill="white"/>
<path fill-rule="evenodd" clip-rule="evenodd" d="M289.494 77.0723C290.11 76.6603 290.738 76.4546 291.378 76.4553H291.515C293.523 76.5475 294.527 77.4614 294.528 79.1968V90.9138H302.745C304.163 91.0067 304.872 91.8156 304.872 93.3404C304.735 94.4972 304.484 95.3982 304.118 96.0436C303.708 96.5982 303.183 96.8755 302.543 96.8755H294.599V111.494C294.599 114.047 294.85 115.777 295.353 116.684C296.038 117.914 297.43 118.529 299.53 118.529C301.174 118.484 302.247 118.301 302.749 117.981L304.735 116.336C305.047 116.156 305.401 116.061 305.762 116.062C306.049 116.054 306.333 116.125 306.584 116.267C306.948 116.497 307.279 116.884 307.577 117.437C307.879 118.006 308.032 118.643 308.022 119.287L307.953 119.835C307.817 120.566 307.406 121.16 306.721 121.617C305.351 122.531 304.141 123.137 303.091 123.433C302.041 123.729 300.808 123.878 299.393 123.878C295.192 123.832 292.362 122.807 290.901 120.802C289.395 118.706 288.641 115.631 288.641 111.574V96.8755H284.327C283.823 96.8755 283.481 96.5982 283.3 96.0436C282.979 95.3968 282.819 94.5879 282.82 93.617C282.826 93.0379 282.967 92.4682 283.232 91.9532C283.414 91.261 283.847 90.9145 284.533 90.9138H288.573V78.8511C288.571 78.0766 288.878 77.4837 289.494 77.0723Z" fill="white"/>
<path fill-rule="evenodd" clip-rule="evenodd" d="M333.801 76.1128C335.833 76.1128 336.85 76.7741 336.85 78.0968V111.277C336.85 115.792 337.911 118.05 340.034 118.049H343.286C343.924 118.049 344.484 118.303 344.964 118.812C345.445 119.32 345.662 120.037 345.615 120.961C345.523 122.995 344.587 124.011 342.807 124.011H340.41C337.62 124.011 335.37 123.143 333.662 121.406C331.814 119.762 330.891 116.564 330.892 111.814V78.1C330.892 76.7752 331.861 76.1128 333.801 76.1128Z" fill="white"/>
<path fill-rule="evenodd" clip-rule="evenodd" d="M377.39 123.531C379.536 123.531 382.184 122.869 385.335 121.544C385.471 123.051 386.43 123.804 388.211 123.802C390.036 123.802 390.949 123.071 390.949 121.609L391.019 97.8318C391.018 95.2283 389.488 92.9212 386.43 90.9105C383.973 89.6461 381.249 88.9895 378.486 88.9956C376.066 88.9956 373.532 89.3382 370.885 90.0233C367.278 91.4857 365.474 92.9932 365.474 94.5456C365.474 96.6925 366.022 97.7659 367.118 97.7659C367.528 97.7666 368.966 96.9215 371.432 95.2308C374.535 94.7747 376.955 94.5237 378.692 94.4776C380.518 94.523 382.048 94.8882 383.279 95.5733C384.923 96.9896 385.745 99.5251 385.745 103.18C384.538 102.874 383.315 102.634 382.081 102.461C380.958 102.304 379.826 102.223 378.692 102.22C374.948 102.221 371.684 103.135 368.899 104.962C365.703 107.063 364.105 109.872 364.105 113.389C364.105 116.77 365.544 119.374 368.419 121.201C370.927 122.754 373.917 123.531 377.39 123.531ZM381.944 107.976C383.156 108.131 384.356 108.36 385.54 108.662V115.446C382.162 117.09 379.194 117.912 376.637 117.912C375.132 117.912 373.591 117.604 372.015 116.987C370.439 116.37 369.422 115.239 368.967 113.595C369.424 111.676 370.565 110.226 372.391 109.243C374.217 108.261 376.386 107.77 378.897 107.77C379.916 107.777 380.934 107.846 381.944 107.976Z" fill="white"/>
<path fill-rule="evenodd" clip-rule="evenodd" d="M410.609 91.7362V78.5117C410.651 76.7755 409.739 75.9085 407.87 75.9106C407.028 75.9106 406.304 76.1163 405.698 76.5277C404.996 77.0277 404.645 77.666 404.645 78.4426L404.577 121.133C404.577 122.823 405.422 123.668 407.111 123.668C409.165 123.668 410.284 122.846 410.466 121.201C412.566 122.846 414.484 123.668 416.219 123.668C421.424 123.668 425.51 122.023 428.477 118.734C431.308 115.491 432.723 111.243 432.723 105.989C432.723 101.372 431.341 97.5341 428.577 94.4745C425.628 91.2305 421.929 89.6085 417.482 89.6085C415.487 89.6121 413.196 90.3213 410.609 91.7362ZM417.429 95.5734C419.975 95.5734 422.225 96.6273 424.182 98.7351H424.176C426.177 100.889 427.178 103.248 427.182 105.813C427.182 109.204 426.386 112.044 424.794 114.335C422.975 116.856 420.429 118.116 417.156 118.116C415.156 118.117 412.951 116.994 410.541 114.747V99.0766C411.034 98.5699 411.583 98.1206 412.177 97.7372C412.722 97.3947 413.245 97.0401 413.746 96.6734C415.018 95.9401 416.246 95.5734 417.429 95.5734Z" fill="white"/>
</g>
<defs>
<linearGradient id="paint0_linear_784_601" x1="169.905" y1="100.277" x2="170.628" y2="54.6394" gradientUnits="userSpaceOnUse">
<stop stop-color="#07697F"/>
<stop offset="0.17" stop-color="#0B7186"/>
<stop offset="0.65" stop-color="#128296"/>
<stop offset="1" stop-color="#15889B"/>
</linearGradient>
<linearGradient id="paint1_linear_784_601" x1="30.2518" y1="32.655" x2="30.1997" y2="95.4373" gradientUnits="userSpaceOnUse">
<stop stop-color="#07697F"/>
<stop offset="0.22" stop-color="#07657A"/>
<stop offset="0.48" stop-color="#085A6C"/>
<stop offset="0.76" stop-color="#094954"/>
<stop offset="1" stop-color="#0A353A"/>
</linearGradient>
<linearGradient id="paint2_linear_784_601" x1="166.011" y1="109.076" x2="133.171" y2="110.216" gradientUnits="userSpaceOnUse">
<stop stop-color="#15889B"/>
<stop offset="1" stop-color="#07697F"/>
</linearGradient>
<clipPath id="clip0_784_601">
<rect width="1440" height="200" fill="white"/>
</clipPath>
</defs>
</svg>
