<?xml version="1.0" encoding="UTF-8"?>
<svg width="1520px" height="508px" viewBox="0 0 1520 508" version="1.1" xmlns="http://www.w3.org/2000/svg" xmlns:xlink="http://www.w3.org/1999/xlink">
    <title>Desktop HD</title>
    <g id="Desktop-HD" stroke="none" stroke-width="1" fill="none" fill-rule="evenodd">
        <rect fill="#4A4441" x="0" y="0" width="1520" height="508"></rect>
        <g id="Group-4" transform="translate(67.898060, 215.704086)" stroke="#FFFFFF">
            <g id="Group" transform="translate(0.000000, -0.000000)">
                <rect id="Rectangle" x="33.389806" y="34.5239373" width="30.1886092" height="29.6215435"></rect>
                <rect id="Rectangle" x="-0.5" y="33.5239373" width="32.1886092" height="31.6215435"></rect>
                <rect id="Rectangle" x="33.389806" y="0.5" width="30.1886092" height="29.6215435"></rect>
                <rect id="Rectangle" x="-0.5" y="-0.5" width="32.1886092" height="31.6215435"></rect>
                <rect id="Rectangle" x="16.5119686" y="17.0790343" width="32.1886092" height="31.6215435"></rect>
            </g>
        </g>
        <g id="Group-2" transform="translate(67.898060, 336.489063)" stroke="#FFFFFF">
            <g id="Group-3" transform="translate(0.000000, 0.000000)">
                <rect id="Rectangle" x="0.5" y="6.17065621" width="18.2802311" height="18.2802311"></rect>
                <rect id="Rectangle" x="23.1826248" y="6.17065621" width="18.2802311" height="18.2802311"></rect>
                <rect id="Rectangle" x="45.8652497" y="6.17065621" width="18.2802311" height="18.2802311"></rect>
                <rect id="Rectangle" x="0.5" y="28.8532811" width="18.2802311" height="18.2802311"></rect>
                <rect id="Rectangle" x="23.1826248" y="28.8532811" width="18.2802311" height="18.2802311"></rect>
                <rect id="Rectangle" x="45.8652497" y="28.8532811" width="18.2802311" height="18.2802311"></rect>
                <rect id="Rectangle" x="0.5" y="51.5359059" width="18.2802311" height="18.2802311"></rect>
                <rect id="Rectangle" x="23.1826248" y="51.5359059" width="18.2802311" height="18.2802311"></rect>
                <rect id="Rectangle" x="45.8652497" y="51.5359059" width="18.2802311" height="18.2802311"></rect>
                <rect id="Rectangle" x="102.571812" y="6.17065621" width="18.2802311" height="18.2802311"></rect>
                <rect id="Rectangle" x="125.254437" y="6.17065621" width="18.2802311" height="18.2802311"></rect>
                <rect id="Rectangle" x="147.937061" y="6.17065621" width="18.2802311" height="18.2802311"></rect>
                <rect id="Rectangle" x="102.571812" y="28.8532811" width="18.2802311" height="18.2802311"></rect>
                <rect id="Rectangle" x="125.254437" y="28.8532811" width="18.2802311" height="18.2802311"></rect>
                <rect id="Rectangle" x="147.937061" y="28.8532811" width="18.2802311" height="18.2802311"></rect>
                <rect id="Rectangle" x="102.571812" y="51.5359059" width="18.2802311" height="18.2802311"></rect>
                <rect id="Rectangle" x="125.254437" y="51.5359059" width="18.2802311" height="18.2802311"></rect>
                <rect id="Rectangle" x="147.937061" y="51.5359059" width="18.2802311" height="18.2802311"></rect>
                <rect id="Rectangle" x="204.643624" y="6.17065621" width="18.2802311" height="18.2802311"></rect>
                <rect id="Rectangle" x="227.326248" y="6.17065621" width="18.2802311" height="18.2802311"></rect>
                <rect id="Rectangle" x="255.67953" y="0.5" width="18.2802311" height="18.2802311"></rect>
                <rect id="Rectangle" x="204.643624" y="28.8532811" width="18.2802311" height="18.2802311"></rect>
                <rect id="Rectangle" x="227.326248" y="28.8532811" width="18.2802311" height="18.2802311"></rect>
                <rect id="Rectangle" x="250.008873" y="28.8532811" width="18.2802311" height="18.2802311"></rect>
                <rect id="Rectangle" x="204.643624" y="51.5359059" width="18.2802311" height="18.2802311"></rect>
                <rect id="Rectangle" x="227.326248" y="51.5359059" width="18.2802311" height="18.2802311"></rect>
                <rect id="Rectangle" x="250.008873" y="51.5359059" width="18.2802311" height="18.2802311"></rect>
            </g>
        </g>
        <g id="Group-5" transform="translate(66.763929, 93.217912)" stroke="#FFFFFF">
            <g id="Group-7" transform="translate(0.000000, 2.268262)">
                <line x1="2.26826248" y1="16.444903" x2="22.6826248" y2="1.13413124" id="Line" stroke-linecap="square"></line>
                <line x1="45.9323153" y1="16.444903" x2="66.3466777" y2="1.13413124" id="Line" stroke-linecap="square"></line>
                <line x1="46.4993809" y1="61.2430871" x2="66.9137433" y2="45.9323153" id="Line" stroke-linecap="square"></line>
                <line x1="1.13413124" y1="61.2430871" x2="21.5484936" y2="45.9323153" id="Line" stroke-linecap="square"></line>
                <rect id="Rectangle" fill="#FFFFFF" x="0.5" y="16.944903" width="45.4993809" height="45.4993809"></rect>
                <line x1="23.2496905" y1="0.567065621" x2="66.3466777" y2="0.567065621" id="Line-6" stroke-linecap="square"></line>
                <line x1="45.3652497" y1="23.2496905" x2="88.4622369" y2="23.2496905" id="Line-6" stroke-linecap="square" transform="translate(66.913743, 23.249690) rotate(-90.000000) translate(-66.913743, -23.249690) "></line>
            </g>
            <line x1="104.340074" y1="17.0119686" x2="124.754437" y2="1.70119686" id="Line" stroke-linecap="square"></line>
            <line x1="148.004127" y1="17.0119686" x2="168.418489" y2="1.70119686" id="Line" stroke-linecap="square"></line>
            <line x1="148.571193" y1="61.8101527" x2="168.985555" y2="46.4993809" id="Line" stroke-linecap="square"></line>
            <line x1="103.205943" y1="61.8101527" x2="123.620305" y2="46.4993809" id="Line" stroke-linecap="square"></line>
            <rect id="Rectangle" x="210.31428" y="17.5119686" width="45.4993809" height="45.4993809"></rect>
            <rect id="Rectangle" x="232.996905" y="0.5" width="45.4993809" height="45.4993809"></rect>
            <line x1="212.082542" y1="17.0119686" x2="232.496905" y2="1.70119686" id="Line" stroke-linecap="square"></line>
            <line x1="255.746595" y1="17.0119686" x2="276.160957" y2="1.70119686" id="Line" stroke-linecap="square"></line>
            <line x1="256.313661" y1="61.8101527" x2="276.728023" y2="46.4993809" id="Line" stroke-linecap="square"></line>
            <line x1="210.948411" y1="61.8101527" x2="231.362773" y2="46.4993809" id="Line" stroke-linecap="square"></line>
            <rect id="Rectangle" fill="#FFFFFF" x="125.254437" y="0.5" width="45.4993809" height="45.4993809"></rect>
            <rect id="Rectangle" fill="#FFFFFF" x="102.571812" y="17.5119686" width="45.4993809" height="45.4993809"></rect>
        </g>
        <g id="Group-6" transform="translate(747.000000, 38.000000)"></g>
        <circle id="Oval" stroke="#FFFFFF" cx="184.430045" cy="226.1948" r="8.78951713"></circle>
        <circle id="Oval" stroke="#FFFFFF" cx="184.430045" cy="265.889393" r="8.78951713"></circle>
        <circle id="Oval" stroke="#FFFFFF" cx="224.124639" cy="226.1948" r="8.78951713"></circle>
        <circle id="Oval" stroke="#FFFFFF" cx="224.124639" cy="265.889393" r="8.78951713"></circle>
        <line x1="191.518366" y1="258.801073" x2="197.756087" y2="252.563351" id="Line-4" stroke="#FFFFFF" stroke-linecap="square"></line>
        <line x1="210.798597" y1="239.520842" x2="217.036319" y2="233.28312" id="Line-4" stroke="#FFFFFF" stroke-linecap="square"></line>
        <line x1="197.969981" y1="239.517042" x2="191.518366" y2="233.500813" id="Line-4" stroke="#FFFFFF" stroke-linecap="square"></line>
        <line x1="217.250212" y1="258.797273" x2="210.798597" y2="252.781045" id="Line-4" stroke="#FFFFFF" stroke-linecap="square"></line>
        <circle id="Oval" stroke="#FFFFFF" cx="204.277342" cy="246.042097" r="8.78951713"></circle>
        <line x1="193.219563" y1="265.889393" x2="215.335122" y2="265.889393" id="Line-5" stroke="#FFFFFF" stroke-linecap="square"></line>
        <line x1="193.219563" y1="226.1948" x2="215.335122" y2="226.1948" id="Line-5" stroke="#FFFFFF" stroke-linecap="square"></line>
        <line x1="213.066859" y1="245.475031" x2="235.182418" y2="245.475031" id="Line-5" stroke="#FFFFFF" stroke-linecap="square" transform="translate(224.124639, 245.475031) rotate(-90.000000) translate(-224.124639, -245.475031) "></line>
        <line x1="172.8052" y1="245.475031" x2="194.920759" y2="245.475031" id="Line-5" stroke="#FFFFFF" stroke-linecap="square" transform="translate(183.862980, 245.475031) rotate(-90.000000) translate(-183.862980, -245.475031) "></line>
        <g id="Group-8" transform="translate(277.712340, 206.063970)" stroke="#FFFFFF">
            <circle id="Oval" cx="8.78951713" cy="20.1308296" r="8.78951713"></circle>
            <circle id="Oval" cx="8.78951713" cy="65.4960792" r="8.78951713"></circle>
            <circle id="Oval" cx="59.825423" cy="8.78951713" r="8.78951713"></circle>
            <circle id="Oval" cx="48.4841106" cy="65.4960792" r="8.78951713"></circle>
            <line x1="15.8778374" y1="58.407759" x2="22.1155592" y2="52.1700371" id="Line-4" stroke-linecap="square"></line>
            <line x1="35.1580685" y1="39.1275279" x2="53.871234" y2="17.0119686" id="Line-4" stroke-linecap="square"></line>
            <line x1="22.3294527" y1="39.123728" x2="15.8778374" y2="28.9203467" id="Line-4" stroke-linecap="square"></line>
            <line x1="41.6096838" y1="58.4039591" x2="35.1580685" y2="52.3877305" id="Line-4" stroke-linecap="square"></line>
            <circle id="Oval" cx="28.6368139" cy="45.6487825" r="8.78951713"></circle>
            <line x1="17.5790343" y1="65.4960792" x2="39.6945935" y2="65.4960792" id="Line-5" stroke-linecap="square"></line>
            <line x1="17.5790343" y1="20.1308296" x2="51.0359059" y2="13.0425093" id="Line-5" stroke-linecap="square"></line>
            <line x1="33.7404045" y1="32.3227404" x2="72.3008667" y2="41.1122575" id="Line-5" stroke-linecap="square" transform="translate(53.020636, 36.859265) rotate(-90.000000) translate(-53.020636, -36.859265) "></line>
            <line x1="-5.3871234" y1="42.5299216" x2="21.8320264" y2="42.5299216" id="Line-5" stroke-linecap="square" transform="translate(8.222452, 42.529922) rotate(-90.000000) translate(-8.222452, -42.529922) "></line>
        </g>
        <circle id="Oval" stroke="#FFFFFF" cx="396.789517" cy="234.701197" r="8.78951713"></circle>
        <circle id="Oval" stroke="#FFFFFF" cx="396.789517" cy="280.066447" r="8.78951713"></circle>
        <circle id="Oval" stroke="#FFFFFF" cx="447.825423" cy="223.359884" r="8.78951713"></circle>
        <circle id="Oval" stroke="#FFFFFF" cx="436.484111" cy="280.066447" r="8.78951713"></circle>
        <line x1="403.877837" y1="272.978126" x2="410.115559" y2="266.740404" id="Line-4" stroke="#FFFFFF" stroke-linecap="square"></line>
        <line x1="423.158069" y1="253.697895" x2="441.871234" y2="231.582336" id="Line-4" stroke="#FFFFFF" stroke-linecap="square"></line>
        <line x1="410.329453" y1="253.694095" x2="403.877837" y2="243.490714" id="Line-4" stroke="#FFFFFF" stroke-linecap="square"></line>
        <line x1="429.609684" y1="272.974326" x2="423.158069" y2="266.958098" id="Line-4" stroke="#FFFFFF" stroke-linecap="square"></line>
        <circle id="Oval" stroke="#FFFFFF" cx="416.636814" cy="260.21915" r="8.78951713"></circle>
        <line x1="405.579034" y1="280.066447" x2="427.694593" y2="280.066447" id="Line-5" stroke="#FFFFFF" stroke-linecap="square"></line>
        <line x1="405.579034" y1="234.701197" x2="439.035906" y2="227.612877" id="Line-5" stroke="#FFFFFF" stroke-linecap="square"></line>
        <line x1="421.740404" y1="246.893108" x2="460.300867" y2="255.682625" id="Line-5" stroke="#FFFFFF" stroke-linecap="square" transform="translate(441.020636, 251.429633) rotate(-90.000000) translate(-441.020636, -251.429633) "></line>
        <line x1="382.612877" y1="257.100289" x2="409.832026" y2="257.100289" id="Line-5" stroke="#FFFFFF" stroke-linecap="square" transform="translate(396.222452, 257.100289) rotate(-90.000000) translate(-396.222452, -257.100289) "></line>
        <circle id="Oval" stroke="#FFFFFF" cx="491.489476" cy="233.567066" r="9.92364837"></circle>
        <circle id="Oval" stroke="#FFFFFF" cx="492.056541" cy="278.36525" r="7.08832026"></circle>
        <circle id="Oval" stroke="#FFFFFF" cx="547.061907" cy="229.030541" r="14.4601733"></circle>
        <circle id="Oval" stroke="#FFFFFF" cx="533.452332" cy="276.664053" r="12.1919109"></circle>
        <line x1="497.443665" y1="272.978126" x2="503.681387" y2="266.740404" id="Line-4" stroke="#FFFFFF" stroke-linecap="square"></line>
        <line x1="516.723896" y1="253.697895" x2="534.869996" y2="237.820058" id="Line-4" stroke="#FFFFFF" stroke-linecap="square"></line>
        <line x1="503.89528" y1="253.694095" x2="497.443665" y2="243.490714" id="Line-4" stroke="#FFFFFF" stroke-linecap="square"></line>
        <line x1="522.961618" y1="269.859265" x2="516.723896" y2="266.958098" id="Line-4" stroke="#FFFFFF" stroke-linecap="square"></line>
        <circle id="Oval" stroke="#FFFFFF" cx="510.202641" cy="260.21915" r="8.78951713"></circle>
        <line x1="499.144862" y1="280.066447" x2="521.260421" y2="280.066447" id="Line-5" stroke="#FFFFFF" stroke-linecap="square"></line>
        <line x1="501.413124" y1="232.149402" x2="532.601733" y2="227.612877" id="Line-5" stroke="#FFFFFF" stroke-linecap="square"></line>
        <line x1="531.184069" y1="250.011969" x2="552.165497" y2="258.517953" id="Line-5" stroke="#FFFFFF" stroke-linecap="square" transform="translate(541.391251, 254.264961) rotate(-90.000000) translate(-541.391251, -254.264961) "></line>
        <line x1="477.66428" y1="258.23442" x2="504.531985" y2="255.966158" id="Line-5" stroke="#FFFFFF" stroke-linecap="square" transform="translate(490.922410, 257.100289) rotate(-90.000000) translate(-490.922410, -257.100289) "></line>
        <circle id="Oval" stroke="#FFFFFF" cx="596.396616" cy="233.567066" r="9.92364837"></circle>
        <circle id="Oval" stroke="#FFFFFF" cx="596.963681" cy="278.36525" r="7.08832026"></circle>
        <circle id="Oval" stroke="#FFFFFF" cx="651.969047" cy="229.030541" r="14.4601733"></circle>
        <circle id="Oval" stroke="#FFFFFF" cx="638.359472" cy="276.664053" r="12.1919109"></circle>
        <line x1="602.350805" y1="272.978126" x2="608.588527" y2="266.740404" id="Line-4" stroke="#FFFFFF" stroke-linecap="square"></line>
        <line x1="621.631036" y1="253.697895" x2="639.777136" y2="237.820058" id="Line-4" stroke="#FFFFFF" stroke-linecap="square"></line>
        <line x1="608.80242" y1="253.694095" x2="602.350805" y2="243.490714" id="Line-4" stroke="#FFFFFF" stroke-linecap="square"></line>
        <line x1="627.868758" y1="269.859265" x2="621.631036" y2="266.958098" id="Line-4" stroke="#FFFFFF" stroke-linecap="square"></line>
        <circle id="Oval" stroke="#FFFFFF" cx="615.109781" cy="260.21915" r="8.78951713"></circle>
        <circle id="Oval" stroke="#FFFFFF" cx="702.437887" cy="227.896409" r="5.3871234"></circle>
        <circle id="Oval" stroke="#FFFFFF" transform="translate(692.433853, 261.931437) rotate(65.000000) translate(-692.433853, -261.931437) " cx="692.433853" cy="261.931437" r="3.68592654"></circle>
        <circle id="Oval" stroke="#FFFFFF" cx="731.925299" cy="225.061081" r="7.65538589"></circle>
        <circle id="Oval" stroke="#FFFFFF" transform="translate(702.294229, 281.735288) rotate(65.000000) translate(-702.294229, -281.735288) " cx="702.294229" cy="281.735288" r="6.52125464"></circle>
        <line x1="696.064653" y1="263.679649" x2="700.586183" y2="265.325351" id="Line-4" stroke="#FFFFFF" stroke-linecap="square"></line>
        <line x1="715.763929" y1="238.387123" x2="725.661802" y2="229.881139" id="Line-4" stroke="#FFFFFF" stroke-linecap="square"></line>
        <path d="M708.970198,238.289893 L705.526333,232.843341 L708.970198,238.289893 Z" id="Line-4" stroke="#FFFFFF" stroke-linecap="square"></path>
        <path d="M703.32696,275.28923 L703.323317,271.617025 L703.32696,275.28923 Z" id="Line-4" stroke="#FFFFFF" stroke-linecap="square"></path>
        <circle id="Oval" stroke="#FFFFFF" transform="translate(704.970570, 267.347848) rotate(65.000000) translate(-704.970570, -267.347848) " cx="704.97057" cy="267.347848" r="4.82005778"></circle>
        <circle id="Oval" stroke="#FFFFFF" cx="712.645068" cy="242.07305" r="4.82005778"></circle>
        <circle id="Oval" stroke="#FFFFFF" cx="761.412712" cy="233.567066" r="12.7589765"></circle>
        <circle id="Oval" stroke="#FFFFFF" cx="749.787866" cy="275.246389" r="10.7742468"></circle>
        <line x1="735.04416" y1="254.832026" x2="750.990733" y2="241.222452" id="Line-4" stroke="#FFFFFF" stroke-linecap="square"></line>
        <line x1="707.257945" y1="260.786215" x2="710.660338" y2="248.027239" id="Line-4" stroke="#FFFFFF" stroke-linecap="square"></line>
        <line x1="723.135782" y1="254.264961" x2="715.763929" y2="246.326042" id="Line-4" stroke="#FFFFFF" stroke-linecap="square"></line>
        <line x1="710.660338" y1="266.878939" x2="721.434585" y2="264.472142" id="Line-4" stroke="#FFFFFF" stroke-linecap="square"></line>
        <path d="M740.340339,269.414952 L734.867621,266.878939 L740.340339,269.414952 Z" id="Line-4" stroke="#FFFFFF" stroke-linecap="square"></path>
        <circle id="Oval" stroke="#FFFFFF" cx="729.089971" cy="260.786215" r="7.65538589"></circle>
        <circle id="Oval" stroke="#FFFFFF" transform="translate(808.743579, 267.347848) rotate(65.000000) translate(-808.743579, -267.347848) " cx="808.743579" cy="267.347848" r="4.82005778"></circle>
        <circle id="Oval" stroke="#FFFFFF" cx="809.046224" cy="242.07305" r="4.82005778"></circle>
        <circle id="Oval" stroke="#FFFFFF" cx="857.813867" cy="233.567066" r="12.7589765"></circle>
        <circle id="Oval" stroke="#FFFFFF" cx="846.189022" cy="275.246389" r="10.7742468"></circle>
        <line x1="831.445316" y1="254.832026" x2="847.391888" y2="241.222452" id="Line-4" stroke="#FFFFFF" stroke-linecap="square"></line>
        <line x1="819.536938" y1="254.264961" x2="812.165085" y2="246.326042" id="Line-4" stroke="#FFFFFF" stroke-linecap="square"></line>
        <line x1="813.866281" y1="265.606273" x2="817.835741" y2="262.770945" id="Line-4" stroke="#FFFFFF" stroke-linecap="square"></line>
        <path d="M836.741495,269.414952 L831.268776,266.878939 L836.741495,269.414952 Z" id="Line-4" stroke="#FFFFFF" stroke-linecap="square"></path>
        <circle id="Oval" stroke="#FFFFFF" cx="825.491127" cy="260.786215" r="7.65538589"></circle>
        <line x1="909.133306" y1="101.724309" x2="929.547668" y2="86.4135369" id="Line" stroke="#FFFFFF" stroke-linecap="square"></line>
        <line x1="959.602146" y1="152.193149" x2="980.016508" y2="136.882377" id="Line" stroke="#FFFFFF" stroke-linecap="square"></line>
        <line x1="907.999175" y1="152.193149" x2="928.413537" y2="136.882377" id="Line" stroke="#FFFFFF" stroke-linecap="square"></line>
        <rect id="Rectangle" stroke="#FFFFFF" x="936.28539" y="84.6452745" width="45.4993809" height="45.4993809"></rect>
        <rect id="Rectangle" stroke="#FFFFFF" fill="#FFFFFF" x="907.365043" y="107.894965" width="45.4993809" height="45.4993809"></rect>
        <line x1="980.016508" y1="135.748246" x2="959.602146" y2="135.748246" id="Line-2" stroke="#FFFFFF" stroke-linecap="square"></line>
        <line x1="928.980603" y1="101.724309" x2="908.56624" y2="101.724309" id="Line-2" stroke="#FFFFFF" stroke-linecap="square"></line>
        <line x1="973.778787" y1="129.510524" x2="936.352456" y2="129.510524" id="Line-2" stroke="#FFFFFF" stroke-linecap="square"></line>
        <line x1="954.782088" y1="111.647957" x2="918.206356" y2="111.647957" id="Line-2" stroke="#FFFFFF" stroke-linecap="square" transform="translate(936.352456, 111.364424) rotate(-90.000000) translate(-936.352456, -111.364424) "></line>
        <line x1="939.471317" y1="94.0689228" x2="923.309946" y2="94.0689228" id="Line-2" stroke="#FFFFFF" stroke-linecap="square" transform="translate(931.248865, 93.785390) rotate(-90.000000) translate(-931.248865, -93.785390) "></line>
        <line x1="959.602146" y1="134.897648" x2="959.602146" y2="152.193149" id="Line-3" stroke="#FFFFFF" stroke-linecap="square"></line>
        <line x1="800.937185" y1="107.394965" x2="821.351548" y2="92.0841931" id="Line" stroke="#FFFFFF" stroke-linecap="square"></line>
        <line x1="845.168304" y1="152.193149" x2="865.582666" y2="136.882377" id="Line" stroke="#FFFFFF" stroke-linecap="square"></line>
        <line x1="799.803054" y1="152.193149" x2="820.217416" y2="136.882377" id="Line" stroke="#FFFFFF" stroke-linecap="square"></line>
        <rect id="Rectangle" stroke="#FFFFFF" x="828.08927" y="84.6452745" width="45.4993809" height="45.4993809"></rect>
        <rect id="Rectangle" stroke="#FFFFFF" fill="#FFFFFF" x="799.168923" y="107.894965" width="45.4993809" height="45.4993809"></rect>
        <line x1="865.582666" y1="135.748246" x2="845.168304" y2="135.748246" id="Line-2" stroke="#FFFFFF" stroke-linecap="square"></line>
        <line x1="865.582666" y1="129.510524" x2="828.156335" y2="129.510524" id="Line-2" stroke="#FFFFFF" stroke-linecap="square"></line>
        <line x1="846.585968" y1="111.647957" x2="810.010235" y2="111.647957" id="Line-2" stroke="#FFFFFF" stroke-linecap="square" transform="translate(828.156335, 111.364424) rotate(-90.000000) translate(-828.156335, -111.364424) "></line>
        <line x1="831.275196" y1="99.739579" x2="815.113826" y2="99.739579" id="Line-2" stroke="#FFFFFF" stroke-linecap="square" transform="translate(823.052745, 99.456046) rotate(-90.000000) translate(-823.052745, -99.456046) "></line>
        <line x1="698.978787" y1="107.394965" x2="719.393149" y2="92.0841931" id="Line" stroke="#FFFFFF" stroke-linecap="square"></line>
        <line x1="743.209905" y1="152.193149" x2="763.624267" y2="136.882377" id="Line" stroke="#FFFFFF" stroke-linecap="square"></line>
        <line x1="697.844655" y1="152.193149" x2="718.259018" y2="136.882377" id="Line" stroke="#FFFFFF" stroke-linecap="square"></line>
        <rect id="Rectangle" stroke="#FFFFFF" x="719.893149" y="90.8829963" width="45.4993809" height="45.4993809"></rect>
        <rect id="Rectangle" stroke="#FFFFFF" fill="#FFFFFF" x="697.210524" y="107.894965" width="45.4993809" height="45.4993809"></rect>
        <line x1="763.624267" y1="135.748246" x2="719.960215" y2="135.748246" id="Line-2" stroke="#FFFFFF" stroke-linecap="square"></line>
        <line x1="763.624267" y1="135.748246" x2="719.960215" y2="135.748246" id="Line-2" stroke="#FFFFFF" stroke-linecap="square"></line>
        <line x1="740.941643" y1="113.632687" x2="699.262319" y2="113.91622" id="Line-2" stroke="#FFFFFF" stroke-linecap="square" transform="translate(720.243747, 113.916220) rotate(-90.000000) translate(-720.243747, -113.916220) "></line>
        <line x1="597.020388" y1="107.394965" x2="617.43475" y2="92.0841931" id="Line" stroke="#FFFFFF" stroke-linecap="square"></line>
        <line x1="640.684441" y1="107.394965" x2="661.098803" y2="92.0841931" id="Line" stroke="#FFFFFF" stroke-linecap="square"></line>
        <line x1="641.251506" y1="152.193149" x2="661.665869" y2="136.882377" id="Line" stroke="#FFFFFF" stroke-linecap="square"></line>
        <line x1="595.886257" y1="152.193149" x2="616.300619" y2="136.882377" id="Line" stroke="#FFFFFF" stroke-linecap="square"></line>
        <rect id="Rectangle" stroke="#FFFFFF" x="617.93475" y="90.8829963" width="45.4993809" height="45.4993809"></rect>
        <rect id="Rectangle" stroke="#FFFFFF" fill="#FFFFFF" x="595.252125" y="107.894965" width="45.4993809" height="45.4993809"></rect>
        <line x1="495.061989" y1="107.394965" x2="515.476352" y2="92.0841931" id="Line" stroke="#FFFFFF" stroke-linecap="square"></line>
        <line x1="538.726042" y1="107.394965" x2="559.140404" y2="92.0841931" id="Line" stroke="#FFFFFF" stroke-linecap="square"></line>
        <line x1="539.293108" y1="152.193149" x2="559.70747" y2="136.882377" id="Line" stroke="#FFFFFF" stroke-linecap="square"></line>
        <line x1="493.927858" y1="152.193149" x2="514.34222" y2="136.882377" id="Line" stroke="#FFFFFF" stroke-linecap="square"></line>
        <rect id="Rectangle" stroke="#FFFFFF" fill="#FFFFFF" x="493.293727" y="107.894965" width="45.4993809" height="45.4993809"></rect>
        <rect id="Rectangle" stroke="#FFFFFF" fill="#FFFFFF" x="515.976352" y="90.8829963" width="45.4993809" height="45.4993809"></rect>
        <line x1="393.103591" y1="107.394965" x2="413.517953" y2="92.0841931" id="Line" stroke="#FFFFFF" stroke-linecap="square"></line>
        <line x1="436.767643" y1="107.394965" x2="457.182006" y2="92.0841931" id="Line" stroke="#FFFFFF" stroke-linecap="square"></line>
        <line x1="437.334709" y1="152.193149" x2="457.749071" y2="136.882377" id="Line" stroke="#FFFFFF" stroke-linecap="square"></line>
        <line x1="391.969459" y1="152.193149" x2="412.383822" y2="136.882377" id="Line" stroke="#FFFFFF" stroke-linecap="square"></line>
        <rect id="Rectangle" stroke="#FFFFFF" fill="#FFFFFF" x="414.017953" y="90.8829963" width="45.4993809" height="45.4993809"></rect>
        <rect id="Rectangle" stroke="#FFFFFF" fill="#FFFFFF" x="391.335328" y="107.894965" width="45.4993809" height="45.4993809"></rect>
        <rect id="Rectangle" stroke="#FFFFFF" x="387.736484" y="342.074494" width="18.2802311" height="18.2802311"></rect>
        <rect id="Rectangle" stroke="#FFFFFF" x="410.419109" y="342.074494" width="18.2802311" height="18.2802311"></rect>
        <rect id="Rectangle" stroke="#FFFFFF" x="444.443046" y="342.074494" width="18.2802311" height="18.2802311"></rect>
        <rect id="Rectangle" stroke="#FFFFFF" x="387.736484" y="364.757119" width="18.2802311" height="18.2802311"></rect>
        <rect id="Rectangle" stroke="#FFFFFF" x="410.419109" y="364.757119" width="18.2802311" height="18.2802311"></rect>
        <rect id="Rectangle" stroke="#FFFFFF" x="438.77239" y="364.757119" width="18.2802311" height="18.2802311"></rect>
        <rect id="Rectangle" stroke="#FFFFFF" x="387.736484" y="387.439744" width="18.2802311" height="18.2802311"></rect>
        <rect id="Rectangle" stroke="#FFFFFF" x="410.419109" y="387.439744" width="18.2802311" height="18.2802311"></rect>
        <rect id="Rectangle" stroke="#FFFFFF" x="433.101733" y="387.439744" width="18.2802311" height="18.2802311"></rect>
        <rect id="Rectangle" stroke="#FFFFFF" transform="translate(546.581923, 396.579860) rotate(-180.000000) translate(-546.581923, -396.579860) " x="537.441808" y="387.439744" width="18.2802311" height="18.2802311"></rect>
        <rect id="Rectangle" stroke="#FFFFFF" transform="translate(546.581923, 373.897235) rotate(-180.000000) translate(-546.581923, -373.897235) " x="537.441808" y="364.757119" width="18.2802311" height="18.2802311"></rect>
        <rect id="Rectangle" stroke="#FFFFFF" transform="translate(523.899298, 373.897235) rotate(-180.000000) translate(-523.899298, -373.897235) " x="514.759183" y="364.757119" width="18.2802311" height="18.2802311"></rect>
        <rect id="Rectangle" stroke="#FFFFFF" transform="translate(546.581923, 351.214610) rotate(-180.000000) translate(-546.581923, -351.214610) " x="537.441808" y="342.074494" width="18.2802311" height="18.2802311"></rect>
        <rect id="Rectangle" stroke="#FFFFFF" transform="translate(523.899298, 351.214610) rotate(-180.000000) translate(-523.899298, -351.214610) " x="514.759183" y="342.074494" width="18.2802311" height="18.2802311"></rect>
        <rect id="Rectangle" stroke="#FFFFFF" transform="translate(501.216674, 351.214610) rotate(-180.000000) translate(-501.216674, -351.214610) " x="492.076558" y="342.074494" width="18.2802311" height="18.2802311"></rect>
        <rect id="Rectangle" stroke="#FFFFFF" transform="translate(627.105241, 396.579860) rotate(-180.000000) translate(-627.105241, -396.579860) " x="617.965126" y="387.439744" width="18.2802311" height="18.2802311"></rect>
        <rect id="Rectangle" stroke="#FFFFFF" transform="translate(637.312423, 373.897235) rotate(-180.000000) translate(-637.312423, -373.897235) " x="628.172307" y="364.757119" width="18.2802311" height="18.2802311"></rect>
        <rect id="Rectangle" stroke="#FFFFFF" transform="translate(614.629798, 373.897235) rotate(-180.000000) translate(-614.629798, -373.897235) " x="605.489682" y="364.757119" width="18.2802311" height="18.2802311"></rect>
        <rect id="Rectangle" stroke="#FFFFFF" transform="translate(648.653735, 351.214610) rotate(-180.000000) translate(-648.653735, -351.214610) " x="639.513619" y="342.074494" width="18.2802311" height="18.2802311"></rect>
        <rect id="Rectangle" stroke="#FFFFFF" transform="translate(625.971110, 351.214610) rotate(-180.000000) translate(-625.971110, -351.214610) " x="616.830995" y="342.074494" width="18.2802311" height="18.2802311"></rect>
        <rect id="Rectangle" stroke="#FFFFFF" transform="translate(603.288485, 351.214610) rotate(-180.000000) translate(-603.288485, -351.214610) " x="594.14837" y="342.074494" width="18.2802311" height="18.2802311"></rect>
        <line x1="1020.24862" y1="103.621131" x2="1040.66298" y2="88.3103591" id="Line" stroke="#FFFFFF" stroke-linecap="square"></line>
        <line x1="1063.91267" y1="103.621131" x2="1084.32703" y2="88.3103591" id="Line" stroke="#FFFFFF" stroke-linecap="square"></line>
        <line x1="1064.47974" y1="148.419315" x2="1084.8941" y2="133.108543" id="Line" stroke="#FFFFFF" stroke-linecap="square"></line>
        <line x1="1019.11449" y1="148.419315" x2="1039.52885" y2="133.108543" id="Line" stroke="#FFFFFF" stroke-linecap="square"></line>
        <rect id="Rectangle" stroke="#FFFFFF" x="1041.16298" y="87.1091622" width="45.4993809" height="45.4993809"></rect>
        <rect id="Rectangle" stroke="#FFFFFF" fill="#FFFFFF" x="1018.48035" y="104.121131" width="45.4993809" height="45.4993809"></rect>
        <line x1="1159.69856" y1="148.419315" x2="1180.11292" y2="133.108543" id="Line" stroke="#FFFFFF" stroke-linecap="square"></line>
        <line x1="1116.0345" y1="148.419315" x2="1136.44887" y2="133.108543" id="Line" stroke="#FFFFFF" stroke-linecap="square"></line>
        <line x1="1115.46744" y1="103.621131" x2="1135.8818" y2="88.3103591" id="Line" stroke="#FFFFFF" stroke-linecap="square"></line>
        <line x1="1160.83269" y1="103.621131" x2="1181.24705" y2="88.3103591" id="Line" stroke="#FFFFFF" stroke-linecap="square"></line>
        <rect id="Rectangle" stroke="#FFFFFF" x="1113.69917" y="104.121131" width="45.4993809" height="45.4993809"></rect>
        <rect id="Rectangle" stroke="#FFFFFF" fill="#FFFFFF" x="1136.3818" y="87.1091622" width="45.4993809" height="45.4993809"></rect>
        <rect id="Rectangle" stroke="#FFFFFF" transform="translate(720.046636, 350.039620) rotate(-180.000000) translate(-720.046636, -350.039620) " x="710.906521" y="340.899505" width="18.2802311" height="18.2802311"></rect>
        <rect id="Rectangle" stroke="#FFFFFF" transform="translate(709.839455, 372.722245) rotate(-180.000000) translate(-709.839455, -372.722245) " x="700.69934" y="363.58213" width="18.2802311" height="18.2802311"></rect>
        <rect id="Rectangle" stroke="#FFFFFF" transform="translate(732.522080, 372.722245) rotate(-180.000000) translate(-732.522080, -372.722245) " x="723.381965" y="363.58213" width="18.2802311" height="18.2802311"></rect>
        <rect id="Rectangle" stroke="#FFFFFF" transform="translate(698.498143, 395.404870) rotate(-180.000000) translate(-698.498143, -395.404870) " x="689.358027" y="386.264754" width="18.2802311" height="18.2802311"></rect>
        <rect id="Rectangle" stroke="#FFFFFF" transform="translate(721.180768, 395.404870) rotate(-180.000000) translate(-721.180768, -395.404870) " x="712.040652" y="386.264754" width="18.2802311" height="18.2802311"></rect>
        <rect id="Rectangle" stroke="#FFFFFF" transform="translate(743.863392, 395.404870) rotate(-180.000000) translate(-743.863392, -395.404870) " x="734.723277" y="386.264754" width="18.2802311" height="18.2802311"></rect>
        <rect id="Rectangle" stroke="#FFFFFF" transform="translate(835.728023, 352.307883) rotate(-180.000000) translate(-835.728023, -352.307883) " x="826.587908" y="343.167767" width="18.2802311" height="18.2802311"></rect>
        <rect id="Rectangle" stroke="#FFFFFF" transform="translate(813.612464, 372.722245) rotate(-180.000000) translate(-813.612464, -372.722245) " x="804.472348" y="363.58213" width="18.2802311" height="18.2802311"></rect>
        <rect id="Rectangle" stroke="#FFFFFF" transform="translate(857.276517, 372.722245) rotate(-180.000000) translate(-857.276517, -372.722245) " x="848.136401" y="363.58213" width="18.2802311" height="18.2802311"></rect>
        <rect id="Rectangle" stroke="#FFFFFF" transform="translate(801.137020, 395.404870) rotate(-180.000000) translate(-801.137020, -395.404870) " x="791.996905" y="386.264754" width="18.2802311" height="18.2802311"></rect>
        <rect id="Rectangle" stroke="#FFFFFF" transform="translate(823.819645, 395.404870) rotate(-180.000000) translate(-823.819645, -395.404870) " x="814.67953" y="386.264754" width="18.2802311" height="18.2802311"></rect>
        <rect id="Rectangle" stroke="#FFFFFF" transform="translate(846.502270, 395.404870) rotate(-180.000000) translate(-846.502270, -395.404870) " x="837.362154" y="386.264754" width="18.2802311" height="18.2802311"></rect>
        <rect id="Rectangle" stroke="#FFFFFF" transform="translate(869.184895, 395.404870) rotate(-180.000000) translate(-869.184895, -395.404870) " x="860.044779" y="386.264754" width="18.2802311" height="18.2802311"></rect>
        <rect id="Rectangle" stroke="#FFFFFF" transform="translate(958.781263, 355.710277) rotate(-180.000000) translate(-958.781263, -355.710277) " x="949.641147" y="346.570161" width="18.2802311" height="18.2802311"></rect>
        <rect id="Rectangle" stroke="#FFFFFF" transform="translate(940.068097, 373.856376) rotate(-180.000000) translate(-940.068097, -373.856376) " x="930.927982" y="364.716261" width="18.2802311" height="18.2802311"></rect>
        <rect id="Rectangle" stroke="#FFFFFF" transform="translate(978.061494, 373.856376) rotate(-180.000000) translate(-978.061494, -373.856376) " x="968.921378" y="364.716261" width="18.2802311" height="18.2802311"></rect>
        <rect id="Rectangle" stroke="#FFFFFF" transform="translate(930.995047, 390.868345) rotate(-180.000000) translate(-930.995047, -390.868345) " x="921.854932" y="381.728229" width="18.2802311" height="18.2802311"></rect>
        <rect id="Rectangle" stroke="#FFFFFF" transform="translate(948.007016, 390.868345) rotate(-180.000000) translate(-948.007016, -390.868345) " x="938.866901" y="381.728229" width="18.2802311" height="18.2802311"></rect>
        <rect id="Rectangle" stroke="#FFFFFF" transform="translate(970.122575, 390.868345) rotate(-180.000000) translate(-970.122575, -390.868345) " x="960.98246" y="381.728229" width="18.2802311" height="18.2802311"></rect>
        <rect id="Rectangle" stroke="#FFFFFF" transform="translate(987.134544, 390.868345) rotate(-180.000000) translate(-987.134544, -390.868345) " x="977.994428" y="381.728229" width="18.2802311" height="18.2802311"></rect>
        <rect id="Rectangle" stroke="#FFFFFF" transform="translate(1079.566240, 352.307883) rotate(-180.000000) translate(-1079.566240, -352.307883) " x="1070.42612" y="343.167767" width="18.2802311" height="18.2802311"></rect>
        <rect id="Rectangle" stroke="#FFFFFF" transform="translate(1057.450681, 372.722245) rotate(-180.000000) translate(-1057.450681, -372.722245) " x="1048.31057" y="363.58213" width="18.2802311" height="18.2802311"></rect>
        <rect id="Rectangle" stroke="#FFFFFF" transform="translate(1101.114734, 372.722245) rotate(-180.000000) translate(-1101.114734, -372.722245) " x="1091.97462" y="363.58213" width="18.2802311" height="18.2802311"></rect>
        <rect id="Rectangle" stroke="#FFFFFF" transform="translate(1044.975237, 395.404870) rotate(-180.000000) translate(-1044.975237, -395.404870) " x="1035.83512" y="386.264754" width="18.2802311" height="18.2802311"></rect>
        <rect id="Rectangle" stroke="#FFFFFF" transform="translate(1067.657862, 395.404870) rotate(-180.000000) translate(-1067.657862, -395.404870) " x="1058.51775" y="386.264754" width="18.2802311" height="18.2802311"></rect>
        <rect id="Rectangle" stroke="#FFFFFF" transform="translate(1090.340487, 395.404870) rotate(-180.000000) translate(-1090.340487, -395.404870) " x="1081.20037" y="386.264754" width="18.2802311" height="18.2802311"></rect>
        <rect id="Rectangle" stroke="#FFFFFF" transform="translate(1113.023112, 395.404870) rotate(-180.000000) translate(-1113.023112, -395.404870) " x="1103.883" y="386.264754" width="18.2802311" height="18.2802311"></rect>
        <line x1="1049.7953" y1="385.764754" x2="1058.01775" y2="381.228229" id="Line-2" stroke="#FFFFFF" stroke-linecap="square"></line>
        <line x1="1065.67313" y1="373.289311" x2="1078.99917" y2="360.530334" id="Line-2" stroke="#FFFFFF" stroke-linecap="square"></line>
        <line x1="1058.01775" y1="381.228229" x2="1068.22493" y2="385.764754" id="Line-3" stroke="#FFFFFF" stroke-linecap="square"></line>
        <line x1="1078.43211" y1="360.813867" x2="1092.04168" y2="373.289311" id="Line-3" stroke="#FFFFFF" stroke-linecap="square"></line>
        <line x1="1092.32522" y1="385.764754" x2="1100.54767" y2="381.228229" id="Line-2" stroke="#FFFFFF" stroke-linecap="square"></line>
        <line x1="1100.54767" y1="381.228229" x2="1110.75485" y2="385.764754" id="Line-3" stroke="#FFFFFF" stroke-linecap="square"></line>
        <rect id="Rectangle" stroke="#FFFFFF" transform="translate(1072.997524, 251.738341) rotate(-180.000000) translate(-1072.997524, -251.738341) " x="1063.85741" y="242.598225" width="18.2802311" height="18.2802311"></rect>
        <rect id="Rectangle" stroke="#FFFFFF" transform="translate(1039.540652, 262.512588) rotate(-180.000000) translate(-1039.540652, -262.512588) " x="1019.05922" y="242.03116" width="40.962856" height="40.962856"></rect>
        <rect id="Rectangle" stroke="#FFFFFF" transform="translate(1048.613702, 229.622782) rotate(-180.000000) translate(-1048.613702, -229.622782) " x="1039.47359" y="220.482666" width="18.2802311" height="18.2802311"></rect>
        <polygon id="Path" stroke="#FFFFFF" points="1063.92447 280.623246 1063.92447 264.213785 1080.79135 264.213785"></polygon>
        <polygon id="Path" stroke="#FFFFFF" points="1060.52208 236.959193 1060.52208 220.549732 1077.38896 220.549732"></polygon>
        <polygon id="Path" stroke="#FFFFFF" transform="translate(1027.707148, 229.610853) rotate(-180.000000) translate(-1027.707148, -229.610853) " points="1020.12431 237.815583 1020.12431 221.406122 1035.28999 221.406122"></polygon>
        <polygon id="Path" stroke="#FFFFFF" transform="translate(1073.072398, 230.744984) rotate(-180.000000) translate(-1073.072398, -230.744984) " points="1065.48956 238.949715 1065.48956 222.540253 1080.65524 222.540253"></polygon>
        <line x1="1396.79199" y1="271.018572" x2="1405.86504" y2="264.213785" id="Line" stroke="#FFFFFF" stroke-linecap="square" transform="translate(1401.328518, 267.616178) rotate(-180.000000) translate(-1401.328518, -267.616178) "></line>
        <line x1="1379.78002" y1="269.884441" x2="1387.15188" y2="264.78085" id="Line" stroke="#FFFFFF" stroke-linecap="square" transform="translate(1383.465951, 267.332645) rotate(-180.000000) translate(-1383.465951, -267.332645) "></line>
        <line x1="1378.30565" y1="252.872472" x2="1387.3787" y2="246.067685" id="Line" stroke="#FFFFFF" stroke-linecap="square" transform="translate(1382.842179, 249.470078) rotate(-180.000000) translate(-1382.842179, -249.470078) "></line>
        <line x1="1397.35906" y1="252.305407" x2="1406.43211" y2="245.500619" id="Line" stroke="#FFFFFF" stroke-linecap="square" transform="translate(1401.895584, 248.903013) rotate(-180.000000) translate(-1401.895584, -248.903013) "></line>
        <rect id="Rectangle" stroke="#FFFFFF" transform="translate(1387.151878, 261.945522) rotate(-180.000000) translate(-1387.151878, -261.945522) " x="1377.4447" y="252.238341" width="19.4143624" height="19.4143624"></rect>
        <rect id="Rectangle" stroke="#FFFFFF" fill="#FFFFFF" transform="translate(1396.791993, 254.573669) rotate(-180.000000) translate(-1396.791993, -254.573669) " x="1387.08481" y="244.866488" width="19.4143624" height="19.4143624"></rect>
        <line x1="1396.79199" y1="271.018572" x2="1405.86504" y2="264.213785" id="Line" stroke="#FFFFFF" stroke-linecap="square" transform="translate(1401.328518, 267.616178) rotate(-180.000000) translate(-1401.328518, -267.616178) "></line>
        <line x1="1379.78002" y1="269.884441" x2="1387.15188" y2="264.78085" id="Line" stroke="#FFFFFF" stroke-linecap="square" transform="translate(1383.465951, 267.332645) rotate(-180.000000) translate(-1383.465951, -267.332645) "></line>
        <rect id="Rectangle" stroke="#FFFFFF" transform="translate(1387.151878, 261.945522) rotate(-180.000000) translate(-1387.151878, -261.945522) " x="1377.4447" y="252.238341" width="19.4143624" height="19.4143624"></rect>
        <rect id="Rectangle" stroke="#FFFFFF" fill="#FFFFFF" transform="translate(1396.791993, 254.573669) rotate(-180.000000) translate(-1396.791993, -254.573669) " x="1387.08481" y="244.866488" width="19.4143624" height="19.4143624"></rect>
        <line x1="1412.10277" y1="271.018572" x2="1421.17582" y2="264.213785" id="Line" stroke="#FFFFFF" stroke-linecap="square" transform="translate(1416.639290, 267.616178) scale(-1, 1) rotate(-180.000000) translate(-1416.639290, -267.616178) "></line>
        <line x1="1430.81593" y1="269.884441" x2="1438.18778" y2="264.78085" id="Line" stroke="#FFFFFF" stroke-linecap="square" transform="translate(1434.501857, 267.332645) scale(-1, 1) rotate(-180.000000) translate(-1434.501857, -267.332645) "></line>
        <line x1="1430.5891" y1="252.872472" x2="1439.66215" y2="246.067685" id="Line" stroke="#FFFFFF" stroke-linecap="square" transform="translate(1435.125629, 249.470078) scale(-1, 1) rotate(-180.000000) translate(-1435.125629, -249.470078) "></line>
        <line x1="1411.5357" y1="252.305407" x2="1420.60875" y2="245.500619" id="Line" stroke="#FFFFFF" stroke-linecap="square" transform="translate(1416.072225, 248.903013) scale(-1, 1) rotate(-180.000000) translate(-1416.072225, -248.903013) "></line>
        <rect id="Rectangle" stroke="#FFFFFF" transform="translate(1430.815931, 261.945522) scale(-1, 1) rotate(-180.000000) translate(-1430.815931, -261.945522) " x="1421.10875" y="252.238341" width="19.4143624" height="19.4143624"></rect>
        <rect id="Rectangle" stroke="#FFFFFF" fill="#FFFFFF" transform="translate(1421.175815, 254.573669) scale(-1, 1) rotate(-180.000000) translate(-1421.175815, -254.573669) " x="1411.46863" y="244.866488" width="19.4143624" height="19.4143624"></rect>
        <line x1="1412.10277" y1="271.018572" x2="1421.17582" y2="264.213785" id="Line" stroke="#FFFFFF" stroke-linecap="square" transform="translate(1416.639290, 267.616178) scale(-1, 1) rotate(-180.000000) translate(-1416.639290, -267.616178) "></line>
        <line x1="1430.81593" y1="269.884441" x2="1438.18778" y2="264.78085" id="Line" stroke="#FFFFFF" stroke-linecap="square" transform="translate(1434.501857, 267.332645) scale(-1, 1) rotate(-180.000000) translate(-1434.501857, -267.332645) "></line>
        <rect id="Rectangle" stroke="#FFFFFF" transform="translate(1430.815931, 261.945522) scale(-1, 1) rotate(-180.000000) translate(-1430.815931, -261.945522) " x="1421.10875" y="252.238341" width="19.4143624" height="19.4143624"></rect>
        <rect id="Rectangle" stroke="#FFFFFF" fill="#FFFFFF" transform="translate(1421.175815, 254.573669) scale(-1, 1) rotate(-180.000000) translate(-1421.175815, -254.573669) " x="1411.46863" y="244.866488" width="19.4143624" height="19.4143624"></rect>
        <line x1="1396.79199" y1="221.683863" x2="1405.86504" y2="214.879076" id="Line" stroke="#FFFFFF" stroke-linecap="square" transform="translate(1401.328518, 218.281469) scale(1, -1) rotate(-180.000000) translate(-1401.328518, -218.281469) "></line>
        <line x1="1379.78002" y1="221.116797" x2="1387.15188" y2="216.013207" id="Line" stroke="#FFFFFF" stroke-linecap="square" transform="translate(1383.465951, 218.565002) scale(1, -1) rotate(-180.000000) translate(-1383.465951, -218.565002) "></line>
        <line x1="1378.30565" y1="239.829963" x2="1387.3787" y2="233.025175" id="Line" stroke="#FFFFFF" stroke-linecap="square" transform="translate(1382.842179, 236.427569) scale(1, -1) rotate(-180.000000) translate(-1382.842179, -236.427569) "></line>
        <line x1="1397.35906" y1="240.397028" x2="1406.43211" y2="233.592241" id="Line" stroke="#FFFFFF" stroke-linecap="square" transform="translate(1401.895584, 236.994635) scale(1, -1) rotate(-180.000000) translate(-1401.895584, -236.994635) "></line>
        <rect id="Rectangle" stroke="#FFFFFF" transform="translate(1387.151878, 223.952125) scale(1, -1) rotate(-180.000000) translate(-1387.151878, -223.952125) " x="1377.4447" y="214.244944" width="19.4143624" height="19.4143624"></rect>
        <rect id="Rectangle" stroke="#FFFFFF" fill="#FFFFFF" transform="translate(1396.791993, 231.323979) scale(1, -1) rotate(-180.000000) translate(-1396.791993, -231.323979) " x="1387.08481" y="221.616797" width="19.4143624" height="19.4143624"></rect>
        <line x1="1396.79199" y1="221.683863" x2="1405.86504" y2="214.879076" id="Line" stroke="#FFFFFF" stroke-linecap="square" transform="translate(1401.328518, 218.281469) scale(1, -1) rotate(-180.000000) translate(-1401.328518, -218.281469) "></line>
        <line x1="1379.78002" y1="221.116797" x2="1387.15188" y2="216.013207" id="Line" stroke="#FFFFFF" stroke-linecap="square" transform="translate(1383.465951, 218.565002) scale(1, -1) rotate(-180.000000) translate(-1383.465951, -218.565002) "></line>
        <rect id="Rectangle" stroke="#FFFFFF" transform="translate(1387.151878, 223.952125) scale(1, -1) rotate(-180.000000) translate(-1387.151878, -223.952125) " x="1377.4447" y="214.244944" width="19.4143624" height="19.4143624"></rect>
        <rect id="Rectangle" stroke="#FFFFFF" fill="#FFFFFF" transform="translate(1396.791993, 231.323979) scale(1, -1) rotate(-180.000000) translate(-1396.791993, -231.323979) " x="1387.08481" y="221.616797" width="19.4143624" height="19.4143624"></rect>
        <line x1="1412.10277" y1="221.683863" x2="1421.17582" y2="214.879076" id="Line" stroke="#FFFFFF" stroke-linecap="square" transform="translate(1416.639290, 218.281469) scale(-1, -1) rotate(-180.000000) translate(-1416.639290, -218.281469) "></line>
        <line x1="1430.81593" y1="221.116797" x2="1438.18778" y2="216.013207" id="Line" stroke="#FFFFFF" stroke-linecap="square" transform="translate(1434.501857, 218.565002) scale(-1, -1) rotate(-180.000000) translate(-1434.501857, -218.565002) "></line>
        <line x1="1430.5891" y1="239.829963" x2="1439.66215" y2="233.025175" id="Line" stroke="#FFFFFF" stroke-linecap="square" transform="translate(1435.125629, 236.427569) scale(-1, -1) rotate(-180.000000) translate(-1435.125629, -236.427569) "></line>
        <line x1="1411.5357" y1="240.397028" x2="1420.60875" y2="233.592241" id="Line" stroke="#FFFFFF" stroke-linecap="square" transform="translate(1416.072225, 236.994635) scale(-1, -1) rotate(-180.000000) translate(-1416.072225, -236.994635) "></line>
        <rect id="Rectangle" stroke="#FFFFFF" transform="translate(1430.815931, 223.952125) scale(-1, -1) rotate(-180.000000) translate(-1430.815931, -223.952125) " x="1421.10875" y="214.244944" width="19.4143624" height="19.4143624"></rect>
        <rect id="Rectangle" stroke="#FFFFFF" fill="#FFFFFF" transform="translate(1421.175815, 231.323979) scale(-1, -1) rotate(-180.000000) translate(-1421.175815, -231.323979) " x="1411.46863" y="221.616797" width="19.4143624" height="19.4143624"></rect>
        <line x1="1412.10277" y1="221.683863" x2="1421.17582" y2="214.879076" id="Line" stroke="#FFFFFF" stroke-linecap="square" transform="translate(1416.639290, 218.281469) scale(-1, -1) rotate(-180.000000) translate(-1416.639290, -218.281469) "></line>
        <line x1="1430.81593" y1="221.116797" x2="1438.18778" y2="216.013207" id="Line" stroke="#FFFFFF" stroke-linecap="square" transform="translate(1434.501857, 218.565002) scale(-1, -1) rotate(-180.000000) translate(-1434.501857, -218.565002) "></line>
        <rect id="Rectangle" stroke="#FFFFFF" transform="translate(1430.815931, 223.952125) scale(-1, -1) rotate(-180.000000) translate(-1430.815931, -223.952125) " x="1421.10875" y="214.244944" width="19.4143624" height="19.4143624"></rect>
        <rect id="Rectangle" stroke="#FFFFFF" fill="#FFFFFF" transform="translate(1421.175815, 231.323979) scale(-1, -1) rotate(-180.000000) translate(-1421.175815, -231.323979) " x="1411.46863" y="221.616797" width="19.4143624" height="19.4143624"></rect>
        <line x1="1291.88485" y1="224.519191" x2="1300.9579" y2="217.714404" id="Line" stroke="#FFFFFF" stroke-linecap="square"></line>
        <line x1="1310.59802" y1="223.952125" x2="1317.96987" y2="218.848535" id="Line" stroke="#FFFFFF" stroke-linecap="square"></line>
        <line x1="1310.59802" y1="243.232357" x2="1319.67107" y2="236.427569" id="Line" stroke="#FFFFFF" stroke-linecap="square"></line>
        <line x1="1291.31779" y1="243.232357" x2="1300.39084" y2="236.427569" id="Line" stroke="#FFFFFF" stroke-linecap="square"></line>
        <rect id="Rectangle" stroke="#FFFFFF" x="1300.89084" y="217.080272" width="19.4143624" height="19.4143624"></rect>
        <rect id="Rectangle" stroke="#FFFFFF" fill="#FFFFFF" x="1291.25072" y="224.452125" width="19.4143624" height="19.4143624"></rect>
        <line x1="1291.88485" y1="224.519191" x2="1300.9579" y2="217.714404" id="Line" stroke="#FFFFFF" stroke-linecap="square"></line>
        <line x1="1310.59802" y1="223.952125" x2="1319.44424" y2="217.714404" id="Line" stroke="#FFFFFF" stroke-linecap="square"></line>
        <rect id="Rectangle" stroke="#FFFFFF" x="1300.89084" y="217.080272" width="19.4143624" height="19.4143624"></rect>
        <rect id="Rectangle" stroke="#FFFFFF" fill="#FFFFFF" x="1291.25072" y="224.452125" width="19.4143624" height="19.4143624"></rect>
        <line x1="1263.53157" y1="224.519191" x2="1272.60462" y2="217.714404" id="Line" stroke="#FFFFFF" stroke-linecap="square"></line>
        <line x1="1282.24474" y1="223.952125" x2="1289.61659" y2="218.848535" id="Line" stroke="#FFFFFF" stroke-linecap="square"></line>
        <line x1="1282.24474" y1="243.232357" x2="1291.31779" y2="236.427569" id="Line" stroke="#FFFFFF" stroke-linecap="square"></line>
        <line x1="1262.96451" y1="243.232357" x2="1272.03756" y2="236.427569" id="Line" stroke="#FFFFFF" stroke-linecap="square"></line>
        <rect id="Rectangle" stroke="#FFFFFF" x="1272.53756" y="217.080272" width="19.4143624" height="19.4143624"></rect>
        <rect id="Rectangle" stroke="#FFFFFF" fill="#FFFFFF" x="1262.89744" y="224.452125" width="19.4143624" height="19.4143624"></rect>
        <line x1="1263.53157" y1="224.519191" x2="1272.60462" y2="217.714404" id="Line" stroke="#FFFFFF" stroke-linecap="square"></line>
        <line x1="1282.24474" y1="223.952125" x2="1291.09096" y2="217.714404" id="Line" stroke="#FFFFFF" stroke-linecap="square"></line>
        <rect id="Rectangle" stroke="#FFFFFF" x="1272.53756" y="217.080272" width="19.4143624" height="19.4143624"></rect>
        <rect id="Rectangle" stroke="#FFFFFF" fill="#FFFFFF" x="1262.89744" y="224.452125" width="19.4143624" height="19.4143624"></rect>
        <line x1="1291.88485" y1="251.738341" x2="1300.9579" y2="244.933553" id="Line" stroke="#FFFFFF" stroke-linecap="square"></line>
        <line x1="1310.59802" y1="251.171275" x2="1317.96987" y2="246.067685" id="Line" stroke="#FFFFFF" stroke-linecap="square"></line>
        <line x1="1310.59802" y1="270.451506" x2="1319.67107" y2="263.646719" id="Line" stroke="#FFFFFF" stroke-linecap="square"></line>
        <line x1="1291.31779" y1="270.451506" x2="1300.39084" y2="263.646719" id="Line" stroke="#FFFFFF" stroke-linecap="square"></line>
        <rect id="Rectangle" stroke="#FFFFFF" x="1300.89084" y="244.299422" width="19.4143624" height="19.4143624"></rect>
        <rect id="Rectangle" stroke="#FFFFFF" fill="#FFFFFF" x="1291.25072" y="251.671275" width="19.4143624" height="19.4143624"></rect>
        <line x1="1291.88485" y1="251.738341" x2="1300.9579" y2="244.933553" id="Line" stroke="#FFFFFF" stroke-linecap="square"></line>
        <line x1="1310.59802" y1="251.171275" x2="1319.44424" y2="244.933553" id="Line" stroke="#FFFFFF" stroke-linecap="square"></line>
        <rect id="Rectangle" stroke="#FFFFFF" x="1300.89084" y="244.299422" width="19.4143624" height="19.4143624"></rect>
        <rect id="Rectangle" stroke="#FFFFFF" fill="#FFFFFF" x="1291.25072" y="251.671275" width="19.4143624" height="19.4143624"></rect>
        <line x1="1263.53157" y1="251.738341" x2="1272.60462" y2="244.933553" id="Line" stroke="#FFFFFF" stroke-linecap="square"></line>
        <line x1="1282.24474" y1="251.171275" x2="1289.61659" y2="246.067685" id="Line" stroke="#FFFFFF" stroke-linecap="square"></line>
        <line x1="1282.24474" y1="270.451506" x2="1291.31779" y2="263.646719" id="Line" stroke="#FFFFFF" stroke-linecap="square"></line>
        <line x1="1262.96451" y1="270.451506" x2="1272.03756" y2="263.646719" id="Line" stroke="#FFFFFF" stroke-linecap="square"></line>
        <rect id="Rectangle" stroke="#FFFFFF" x="1272.53756" y="244.299422" width="19.4143624" height="19.4143624"></rect>
        <rect id="Rectangle" stroke="#FFFFFF" fill="#FFFFFF" x="1262.89744" y="251.671275" width="19.4143624" height="19.4143624"></rect>
        <line x1="1263.53157" y1="251.738341" x2="1272.60462" y2="244.933553" id="Line" stroke="#FFFFFF" stroke-linecap="square"></line>
        <line x1="1282.24474" y1="251.171275" x2="1291.09096" y2="244.933553" id="Line" stroke="#FFFFFF" stroke-linecap="square"></line>
        <rect id="Rectangle" stroke="#FFFFFF" x="1272.53756" y="244.299422" width="19.4143624" height="19.4143624"></rect>
        <rect id="Rectangle" stroke="#FFFFFF" fill="#FFFFFF" x="1262.89744" y="251.671275" width="19.4143624" height="19.4143624"></rect>
        <line x1="1172.80107" y1="218.848535" x2="1181.87412" y2="212.043747" id="Line" stroke="#FFFFFF" stroke-linecap="square"></line>
        <line x1="1191.51424" y1="218.281469" x2="1198.88609" y2="213.177879" id="Line" stroke="#FFFFFF" stroke-linecap="square"></line>
        <line x1="1191.51424" y1="237.5617" x2="1200.58729" y2="230.756913" id="Line" stroke="#FFFFFF" stroke-linecap="square"></line>
        <line x1="1172.23401" y1="237.5617" x2="1181.30706" y2="230.756913" id="Line" stroke="#FFFFFF" stroke-linecap="square"></line>
        <rect id="Rectangle" stroke="#FFFFFF" x="1181.80706" y="211.409616" width="19.4143624" height="19.4143624"></rect>
        <rect id="Rectangle" stroke="#FFFFFF" fill="#FFFFFF" x="1172.16694" y="218.781469" width="19.4143624" height="19.4143624"></rect>
        <line x1="1172.80107" y1="218.848535" x2="1181.87412" y2="212.043747" id="Line" stroke="#FFFFFF" stroke-linecap="square"></line>
        <line x1="1172.80107" y1="272.719769" x2="1181.87412" y2="265.914981" id="Line" stroke="#FFFFFF" stroke-linecap="square"></line>
        <line x1="1191.51424" y1="218.281469" x2="1200.36046" y2="212.043747" id="Line" stroke="#FFFFFF" stroke-linecap="square"></line>
        <rect id="Rectangle" stroke="#FFFFFF" x="1181.80706" y="211.409616" width="19.4143624" height="19.4143624"></rect>
        <rect id="Rectangle" stroke="#FFFFFF" fill="#FFFFFF" x="1172.16694" y="218.781469" width="19.4143624" height="19.4143624"></rect>
        <line x1="1144.44779" y1="218.848535" x2="1153.52084" y2="212.043747" id="Line" stroke="#FFFFFF" stroke-linecap="square"></line>
        <line x1="1163.16096" y1="218.281469" x2="1170.53281" y2="213.177879" id="Line" stroke="#FFFFFF" stroke-linecap="square"></line>
        <line x1="1163.16096" y1="237.5617" x2="1172.23401" y2="230.756913" id="Line" stroke="#FFFFFF" stroke-linecap="square"></line>
        <line x1="1143.88073" y1="237.5617" x2="1152.95378" y2="230.756913" id="Line" stroke="#FFFFFF" stroke-linecap="square"></line>
        <rect id="Rectangle" stroke="#FFFFFF" x="1153.45378" y="211.409616" width="19.4143624" height="19.4143624"></rect>
        <rect id="Rectangle" stroke="#FFFFFF" fill="#FFFFFF" x="1143.81366" y="218.781469" width="19.4143624" height="19.4143624"></rect>
        <line x1="1144.44779" y1="218.848535" x2="1153.52084" y2="212.043747" id="Line" stroke="#FFFFFF" stroke-linecap="square"></line>
        <line x1="1163.16096" y1="218.281469" x2="1172.00718" y2="212.043747" id="Line" stroke="#FFFFFF" stroke-linecap="square"></line>
        <rect id="Rectangle" stroke="#FFFFFF" x="1153.45378" y="211.409616" width="19.4143624" height="19.4143624"></rect>
        <rect id="Rectangle" stroke="#FFFFFF" fill="#FFFFFF" x="1143.81366" y="218.781469" width="19.4143624" height="19.4143624"></rect>
        <line x1="1172.80107" y1="246.067685" x2="1181.87412" y2="239.262897" id="Line" stroke="#FFFFFF" stroke-linecap="square"></line>
        <line x1="1191.51424" y1="245.500619" x2="1198.88609" y2="240.397028" id="Line" stroke="#FFFFFF" stroke-linecap="square"></line>
        <line x1="1191.51424" y1="264.78085" x2="1200.58729" y2="257.976063" id="Line" stroke="#FFFFFF" stroke-linecap="square"></line>
        <line x1="1172.23401" y1="264.78085" x2="1181.30706" y2="257.976063" id="Line" stroke="#FFFFFF" stroke-linecap="square"></line>
        <rect id="Rectangle" stroke="#FFFFFF" x="1181.80706" y="238.628766" width="19.4143624" height="19.4143624"></rect>
        <rect id="Rectangle" stroke="#FFFFFF" fill="#FFFFFF" x="1172.16694" y="246.000619" width="19.4143624" height="19.4143624"></rect>
        <line x1="1172.80107" y1="246.067685" x2="1181.87412" y2="239.262897" id="Line" stroke="#FFFFFF" stroke-linecap="square"></line>
        <line x1="1191.51424" y1="245.500619" x2="1200.36046" y2="239.262897" id="Line" stroke="#FFFFFF" stroke-linecap="square"></line>
        <rect id="Rectangle" stroke="#FFFFFF" x="1181.80706" y="238.628766" width="19.4143624" height="19.4143624"></rect>
        <rect id="Rectangle" stroke="#FFFFFF" fill="#FFFFFF" x="1172.16694" y="246.000619" width="19.4143624" height="19.4143624"></rect>
        <line x1="1144.44779" y1="246.067685" x2="1153.52084" y2="239.262897" id="Line" stroke="#FFFFFF" stroke-linecap="square"></line>
        <line x1="1163.16096" y1="245.500619" x2="1170.53281" y2="240.397028" id="Line" stroke="#FFFFFF" stroke-linecap="square"></line>
        <line x1="1163.16096" y1="264.78085" x2="1172.23401" y2="257.976063" id="Line" stroke="#FFFFFF" stroke-linecap="square"></line>
        <line x1="1143.88073" y1="264.78085" x2="1152.95378" y2="257.976063" id="Line" stroke="#FFFFFF" stroke-linecap="square"></line>
        <rect id="Rectangle" stroke="#FFFFFF" x="1153.45378" y="238.628766" width="19.4143624" height="19.4143624"></rect>
        <rect id="Rectangle" stroke="#FFFFFF" fill="#FFFFFF" x="1143.81366" y="246.000619" width="19.4143624" height="19.4143624"></rect>
        <line x1="1144.44779" y1="246.067685" x2="1153.52084" y2="239.262897" id="Line" stroke="#FFFFFF" stroke-linecap="square"></line>
        <line x1="1163.16096" y1="245.500619" x2="1172.00718" y2="239.262897" id="Line" stroke="#FFFFFF" stroke-linecap="square"></line>
        <rect id="Rectangle" stroke="#FFFFFF" x="1153.45378" y="238.628766" width="19.4143624" height="19.4143624"></rect>
        <rect id="Rectangle" stroke="#FFFFFF" fill="#FFFFFF" x="1143.81366" y="246.000619" width="19.4143624" height="19.4143624"></rect>
        <line x1="1191.51424" y1="271.585638" x2="1198.88609" y2="266.482047" id="Line" stroke="#FFFFFF" stroke-linecap="square"></line>
        <line x1="1191.51424" y1="290.865869" x2="1200.58729" y2="284.061081" id="Line" stroke="#FFFFFF" stroke-linecap="square"></line>
        <rect id="Rectangle" stroke="#FFFFFF" x="1181.80706" y="264.713785" width="19.4143624" height="19.4143624"></rect>
        <rect id="Rectangle" stroke="#FFFFFF" fill="#FFFFFF" x="1172.16694" y="272.085638" width="19.4143624" height="19.4143624"></rect>
        <line x1="1191.51424" y1="271.585638" x2="1200.36046" y2="265.347916" id="Line" stroke="#FFFFFF" stroke-linecap="square"></line>
        <rect id="Rectangle" stroke="#FFFFFF" x="1181.80706" y="264.713785" width="19.4143624" height="19.4143624"></rect>
        <rect id="Rectangle" stroke="#FFFFFF" fill="#FFFFFF" x="1172.16694" y="272.085638" width="19.4143624" height="19.4143624"></rect>
        <line x1="1116.09451" y1="219.4156" x2="1125.16756" y2="212.610813" id="Line" stroke="#FFFFFF" stroke-linecap="square"></line>
        <line x1="1134.80768" y1="218.281469" x2="1142.17953" y2="213.177879" id="Line" stroke="#FFFFFF" stroke-linecap="square"></line>
        <line x1="1134.80768" y1="237.5617" x2="1143.88073" y2="230.756913" id="Line" stroke="#FFFFFF" stroke-linecap="square"></line>
        <rect id="Rectangle" stroke="#FFFFFF" x="1125.1005" y="211.409616" width="19.4143624" height="19.4143624"></rect>
        <rect id="Rectangle" stroke="#FFFFFF" fill="#FFFFFF" x="1115.46038" y="218.781469" width="19.4143624" height="19.4143624"></rect>
        <line x1="1134.80768" y1="218.281469" x2="1143.6539" y2="212.043747" id="Line" stroke="#FFFFFF" stroke-linecap="square"></line>
        <rect id="Rectangle" stroke="#FFFFFF" x="1125.1005" y="211.409616" width="19.4143624" height="19.4143624"></rect>
        <rect id="Rectangle" stroke="#FFFFFF" fill="#FFFFFF" x="1115.46038" y="218.781469" width="19.4143624" height="19.4143624"></rect>
        <rect id="Rectangle" stroke="#FFFFFF" fill="#9B9B9B" x="1387.72493" y="87.1091622" width="45.4993809" height="45.4993809"></rect>
        <line x1="1410.47462" y1="103.621131" x2="1430.88898" y2="88.3103591" id="Line" stroke="#FFFFFF" stroke-linecap="square"></line>
        <line x1="1365.67643" y1="148.419315" x2="1386.0908" y2="133.108543" id="Line" stroke="#FFFFFF" stroke-linecap="square"></line>
        <rect id="Rectangle" stroke="#FFFFFF" fill="#FFFFFF" x="1365.0423" y="104.121131" width="45.4993809" height="45.4993809"></rect>
        <polygon id="Path" stroke="#FFFFFF" fill="#D8D8D8" points="1411.0326 148.3584 1411.0326 132.516004 1431.86894 132.516004"></polygon>
        <polygon id="Path" stroke="#FFFFFF" fill="#D8D8D8" transform="translate(1377.219653, 95.639018) scale(-1, -1) translate(-1377.219653, -95.639018) " points="1366.80148 103.560216 1366.80148 87.7178198 1387.63782 87.7178198"></polygon>
        <line x1="1366.81057" y1="103.621131" x2="1387.22493" y2="88.3103591" id="Line" stroke="#FFFFFF" stroke-linecap="square"></line>
        <line x1="1411.04168" y1="148.419315" x2="1431.45605" y2="133.108543" id="Line" stroke="#FFFFFF" stroke-linecap="square"></line>
    </g>
</svg>